<svg xmlns="http://www.w3.org/2000/svg" viewBox="0 0 64 64" width="64" height="64">
  <!-- Matches the in-app brand mark (.sidebar-brand-mark): a violet gradient
       rounded square with Lucide's messages-square glyph in white. -->
  <defs>
    <linearGradient id="tcchat-mark" x1="0" y1="0" x2="1" y2="1">
      <stop offset="0" stop-color="#5b47a8"/>
      <stop offset="1" stop-color="#402f7c"/>
    </linearGradient>
  </defs>
  <rect width="64" height="64" rx="15" fill="url(#tcchat-mark)"/>
  <g transform="translate(14 14) scale(1.5)" fill="none" stroke="#ffffff"
     stroke-width="2" stroke-linecap="round" stroke-linejoin="round">
    <path d="M16 10a2 2 0 0 1-2 2H6.828a2 2 0 0 0-1.414.586l-2.202 2.202A.71.71 0 0 1 2 14.286V4a2 2 0 0 1 2-2h10a2 2 0 0 1 2 2z"/>
    <path d="M20 9a2 2 0 0 1 2 2v10.286a.71.71 0 0 1-1.212.502l-2.202-2.202A2 2 0 0 0 17.172 19H10a2 2 0 0 1-2-2v-1"/>
  </g>
</svg>
